<svg xmlns="http://www.w3.org/2000/svg" width="23.403" height="28.218" viewBox="0 0 23.403 28.218">
  <g id="Group_56" data-name="Group 56" transform="translate(0 0)">
    <path id="Path_337" data-name="Path 337" d="M62.43,245.708a7.854,7.854,0,0,0-.023-.815,2.49,2.49,0,0,0-1.62-2.13,2.559,2.559,0,0,0-.836-.155c-.063,0-.126,0-.192,0s-.122,0-.183,0c-.81-.009-1.622,0-2.435,0-.152,0-.3-.021-.487-.037a2.072,2.072,0,0,0-1.376-2.334H46.25l-.035.014a2.073,2.073,0,0,0-1.339,2.318c-.2.014-.368.04-.534.04-.791,0-1.585-.007-2.376,0l-.183,0c-.087,0-.173,0-.26,0a2.553,2.553,0,0,0-1.353.41l-.063.042a2.128,2.128,0,0,0-.791.927l-.035.073c-.009.026-.021.054-.033.082a2.625,2.625,0,0,0-.19.751l-.007.091c-.021.239-.019.48-.019.723q0,7.637,0,15.28v4.263a5.371,5.371,0,0,0,.159,1.5c.241.8.787,1.22,1.917,1.695H60.366c1.077-.454,1.622-.864,1.875-1.6a4.953,4.953,0,0,0,.192-1.6v-4.862Q62.433,253.046,62.43,245.708ZM47.3,242.613h6.9V244.9H47.3ZM60.122,265.5c0,.471-.155.6-.634.6-2.491-.014-4.982-.012-7.472-.012H49.5c-2.5,0-5.007,0-7.512.012-.494,0-.639-.136-.637-.637v-.007q.011-4.066.012-8.135,0-5.9-.009-11.792a1.471,1.471,0,0,1,.016-.239v0a.39.39,0,0,1,.361-.377H42.5a.057.057,0,0,1,.028,0c.6,0,1.2,0,1.814,0h.517c.007.056.012.112.014.164a4.869,4.869,0,0,0,.007.531,1.78,1.78,0,0,0,.883,1.426c.037.021.075.042.112.059a1.162,1.162,0,0,0,.112.049c.051.021.1.037.157.054a1.313,1.313,0,0,0,.166.037c.056.012.115.019.173.026s.117.007.178.007q4.087.014,8.179,0h.019a1.761,1.761,0,0,0,1.789-1.657c.019-.2,0-.412,0-.7h.48c.616,0,1.217.007,1.817,0a.066.066,0,0,1,.03,0h.761c.307.047.379.248.379.62q-.007,4.572-.009,9.142v2.605q0,.885,0,1.767,0,1.45,0,2.9,0,1.763.007,3.523Z" transform="translate(-39.03 -240.23)" fill="#448bf5"/>
    <path id="Path_338" data-name="Path 338" d="M68.366,301.86a1.27,1.27,0,0,1-1.385,1.346c-.673.005-1.343.008-2.016.008-1.472.005-2.945,0-4.415-.008a1.3,1.3,0,0,1-1.412-1.327,1.231,1.231,0,0,1,1-1.214,1.915,1.915,0,0,1,.4-.047c1.085-.013,2.169-.005,3.251-.005,1.061,0,2.119-.008,3.18,0C67.847,300.628,68.348,301.084,68.366,301.86Z" transform="translate(-54.753 -286.635)" fill="#448bf5"/>
    <path id="Path_339" data-name="Path 339" d="M97.148,281.7c.008.823-.522,1.314-1.475,1.333-.823.016-1.647,0-2.47,0s-1.647.013-2.472,0a1.333,1.333,0,1,1,.034-2.639q2.434-.016,4.871,0C96.576,280.4,97.138,280.9,97.148,281.7Z" transform="translate(-78.119 -271.098)" fill="#448bf5"/>
    <path id="Path_340" data-name="Path 340" d="M62.083,321.915a1.33,1.33,0,0,1-1.364,1.293q-.083.008-.166.008c-.823.008-1.649,0-2.47,0s-1.649.011-2.472,0a1.284,1.284,0,0,1-1.441-1.3,1.313,1.313,0,0,1,1.475-1.34q2.189-.016,4.38,0l.562,0A1.352,1.352,0,0,1,62.083,321.915Z" transform="translate(-50.819 -301.979)" fill="#448bf5"/>
    <path id="Path_341" data-name="Path 341" d="M64.393,281.659A1.25,1.25,0,0,1,63.15,283c-.177.013-.351.018-.528.018-.116,0-.232,0-.348-.005l-.077,0-.272,0c-.029,0-.061,0-.092,0h-.095l-.206,0c-.1,0-.206,0-.309.005-.19.005-.377.005-.567,0-.084,0-.172-.008-.259-.013a1.3,1.3,0,0,1-1.259-1.343,1.278,1.278,0,0,1,1.256-1.275c.916-.042,1.837-.04,2.752,0A1.26,1.26,0,0,1,64.393,281.659Z" transform="translate(-54.58 -271.07)" fill="#448bf5"/>
  </g>
</svg>
